<svg xmlns="http://www.w3.org/2000/svg" version="1.1" xmlns:xlink="http://www.w3.org/1999/xlink" xmlns:svgjs="http://svgjs.dev/svgjs" width="48" height="48"><svg width="48" height="48" viewBox="0 0 48 48" fill="none" xmlns="http://www.w3.org/2000/svg">
<rect width="48" height="48" rx="24" fill="white" data-darkreader-inline-fill="" style="--darkreader-inline-fill: #141617;"></rect>
<path fill-rule="evenodd" clip-rule="evenodd" d="M25.655 2.0696C30.574 2.45468 35.3654 4.43363 39.0292 7.87346C42.624 11.2494 44.8967 15.3817 45.6783 20.2514C46.7406 26.8703 45.1774 32.852 40.9058 38.0411C37.4521 42.2373 32.9946 44.8224 27.6419 45.6824C21.0667 46.7375 15.1114 45.1678 9.94976 40.9146C5.74713 37.4523 3.16459 32.9746 2.28653 27.599C0.749055 18.174 5.50437 8.63498 14.0198 4.31793C17.632 2.48576 21.6865 1.75877 25.655 2.0696ZM41.7667 23.9623C41.7856 14.2766 33.9743 6.19844 24.0659 6.16045C14.1937 6.12246 6.22576 14.0693 6.21543 23.9364C6.20338 33.8242 14.1593 41.7538 23.9782 41.7591C33.9501 41.7659 41.7839 33.6498 41.7667 23.9623ZM16.9597 27.3881L16.9591 27.3869C14.7203 23.1329 12.4876 18.8902 10.2615 14.6513C10.2645 14.6482 10.2676 14.6451 10.2707 14.6419C10.2739 14.6387 10.2771 14.6354 10.2803 14.632C10.2931 14.6188 10.3061 14.6053 10.32 14.5926C10.4219 14.672 10.524 14.7514 10.6261 14.8307L10.6263 14.8308C10.888 15.0342 11.1498 15.2377 11.4099 15.4439C12.2526 16.1131 13.0958 16.7822 13.939 17.4513C14.7822 18.1205 15.6254 18.7896 16.4681 19.4587C17.0684 19.9354 17.6672 20.4139 18.2659 20.8925C19.3485 21.7578 20.4311 22.6232 21.5231 23.4771C22.2278 24.0286 22.7575 24.4401 23.1122 24.7118C23.3377 24.8845 23.7113 25.1849 23.899 25.4215C24.0304 25.5866 24.0293 25.6802 24.027 25.8875C24.0268 25.9057 24.0265 25.9247 24.0264 25.9447C24.0252 26.3 24.0265 26.494 24.028 26.7135V26.7141C24.0286 26.8092 24.0293 26.9092 24.0299 27.0292V28.0428V29.0565V30.0701V31.0838V32.0974V33.1111V34.1247V35.1384V36.152V37.1657V38.1793V39.193V40.2066V40.6124V40.8317L24.0264 40.8265C21.6647 36.3287 19.3089 31.8521 16.9597 27.3881ZM31.4489 27.3859C29.0993 31.8507 26.743 36.328 24.381 40.8265L24.3775 40.8317V40.6124V40.2066V39.193V38.1793V37.1657V36.152V35.1384V34.1247V33.1111V32.0974V31.0838V30.0701V29.0565V28.0428V27.0292C24.3781 26.9092 24.3787 26.8092 24.3794 26.7141C24.3808 26.4942 24.3822 26.3002 24.381 25.9447C24.3808 25.9247 24.3806 25.9057 24.3804 25.8875C24.3781 25.6802 24.377 25.5866 24.5084 25.4215C24.696 25.1849 25.0697 24.8845 25.2952 24.7118C25.6499 24.4401 26.1796 24.0286 26.8843 23.4771C27.9763 22.6232 29.059 21.7578 30.1415 20.8925C30.7403 20.4138 31.339 19.9354 31.9392 19.4587C32.7814 18.79 33.6242 18.1212 34.4669 17.4525C35.3106 16.783 36.1543 16.1135 36.9976 15.4439C37.2577 15.2376 37.5195 15.0341 37.7813 14.8307C37.8834 14.7513 37.9854 14.672 38.0873 14.5926C38.1012 14.6053 38.1143 14.6188 38.1271 14.632C38.1334 14.6385 38.1396 14.645 38.1459 14.6513C35.9199 18.8899 33.6873 23.1323 31.4489 27.3859Z" fill="#0F2D4B" data-darkreader-inline-fill="" style="--darkreader-inline-fill: #07213c;"></path>
</svg><style>@media (prefers-color-scheme: light) { :root { filter: none; } }
@media (prefers-color-scheme: dark) { :root { filter: none; } }
</style></svg>